<?xml version="1.0" encoding="UTF-8" standalone="no" ?>
<!DOCTYPE svg PUBLIC "-//W3C//DTD SVG 1.1//EN" "http://www.w3.org/Graphics/SVG/1.1/DTD/svg11.dtd">
<svg xmlns="http://www.w3.org/2000/svg" xmlns:xlink="http://www.w3.org/1999/xlink" version="1.1" width="500" height="500" viewBox="0 0 500 500" xml:space="preserve">
<desc>Created with Fabric.js 4.6.0</desc>
<defs>
</defs>
<g transform="matrix(1 0 0 1 264.61 133.93)" id="fTyhAKfIBIVXKvieKXcmm"  >
<path style="stroke: rgb(169,69,69); stroke-opacity: 0.52; stroke-width: 1; stroke-dasharray: none; stroke-linecap: round; stroke-dashoffset: 0; stroke-linejoin: round; stroke-miterlimit: 10; fill: none; fill-rule: nonzero; opacity: 1;" vector-effect="non-scaling-stroke"  transform=" translate(-264.61, -133.93)" d="M 264.6093896103897 133.92857142857142 L 264.61138961038966 133.92857142857142" stroke-linecap="round" />
</g>
<g transform="matrix(1 0 0 1 212.66 208.6)" id="PKZHyvSERkV1TXf0_oN3j"  >
<path style="stroke: rgb(169,69,69); stroke-opacity: 0.52; stroke-width: 1; stroke-dasharray: none; stroke-linecap: round; stroke-dashoffset: 0; stroke-linejoin: round; stroke-miterlimit: 10; fill: none; fill-rule: nonzero; opacity: 1;" vector-effect="non-scaling-stroke"  transform=" translate(-212.66, -208.6)" d="M 212.66133766233767 208.60389610389606 L 212.66333766233768 208.60389610389606" stroke-linecap="round" />
</g>
<g transform="matrix(1 0 0 1 207.39 211.04)" id="ww3oaNXxkvkd5NPURdsWv"  >
<path style="stroke: rgb(169,69,69); stroke-opacity: 0.52; stroke-width: 1; stroke-dasharray: none; stroke-linecap: round; stroke-dashoffset: 0; stroke-linejoin: round; stroke-miterlimit: 10; fill: none; fill-rule: nonzero; opacity: 1;" vector-effect="non-scaling-stroke"  transform=" translate(-207.39, -211.04)" d="M 207.79120779220787 211.03896103896102 Q 207.79220779220788 211.03896103896102 207.38636363636374 211.03896103896102 L 206.9815194805196 211.03896103896102" stroke-linecap="round" />
</g>
<g transform="matrix(1 0 0 1 120.13 154.22)" id="1HB-a09ye3cgK8DH4iREz"  >
<path style="stroke: rgb(169,69,69); stroke-opacity: 0.52; stroke-width: 1; stroke-dasharray: none; stroke-linecap: round; stroke-dashoffset: 0; stroke-linejoin: round; stroke-miterlimit: 10; fill: none; fill-rule: nonzero; opacity: 1;" vector-effect="non-scaling-stroke"  transform=" translate(-120.13, -154.22)" d="M 120.12887012987036 154.2207792207792 L 120.13087012987037 154.2207792207792" stroke-linecap="round" />
</g>
<g transform="matrix(1 0 0 1 245.94 146.92)" id="VItdU5gxhNIrrY7winB7b"  >
<path style="stroke: rgb(169,69,69); stroke-opacity: 0.52; stroke-width: 1; stroke-dasharray: none; stroke-linecap: round; stroke-dashoffset: 0; stroke-linejoin: round; stroke-miterlimit: 10; fill: none; fill-rule: nonzero; opacity: 1;" vector-effect="non-scaling-stroke"  transform=" translate(-245.94, -146.92)" d="M 245.94055844155864 146.9155844155844 L 245.94255844155865 146.9155844155844" stroke-linecap="round" />
</g>
<g transform="matrix(1 0 0 1 77.92 159.9)" id="J1-TtaGIT3S_j_aNB7wAK"  >
<path style="stroke: rgb(169,69,69); stroke-opacity: 0.52; stroke-width: 1; stroke-dasharray: none; stroke-linecap: round; stroke-dashoffset: 0; stroke-linejoin: round; stroke-miterlimit: 10; fill: none; fill-rule: nonzero; opacity: 1;" vector-effect="non-scaling-stroke"  transform=" translate(-77.92, -159.9)" d="M 77.92107792207824 159.90259740259737 L 77.92307792207825 159.90259740259737" stroke-linecap="round" />
</g>
<g transform="matrix(1 0 0 1 215.91 166.4)" id="X16D82lK_XeUxSNN2-eib"  >
<path style="stroke: rgb(169,69,69); stroke-opacity: 0.52; stroke-width: 1; stroke-dasharray: none; stroke-linecap: round; stroke-dashoffset: 0; stroke-linejoin: round; stroke-miterlimit: 10; fill: none; fill-rule: nonzero; opacity: 1;" vector-effect="non-scaling-stroke"  transform=" translate(-215.91, -166.4)" d="M 215.90809090909133 166.39610389610388 L 215.91009090909134 166.39610389610388" stroke-linecap="round" />
</g>
<g transform="matrix(1 0 0 1 288.96 100.65)" id="eCtMrvrBHjYd3O9rVEH-I"  >
<path style="stroke: rgb(169,69,69); stroke-opacity: 0.52; stroke-width: 1; stroke-dasharray: none; stroke-linecap: round; stroke-dashoffset: 0; stroke-linejoin: round; stroke-miterlimit: 10; fill: none; fill-rule: nonzero; opacity: 1;" vector-effect="non-scaling-stroke"  transform=" translate(-288.96, -100.65)" d="M 288.9600389610394 100.64935064935065 L 288.96203896103935 100.64935064935065" stroke-linecap="round" />
</g>
<g transform="matrix(1 0 0 1 264.61 165.58)" id="3jQWKvuvemW5BzNE3dofp"  >
<path style="stroke: rgb(169,69,69); stroke-opacity: 0.52; stroke-width: 1; stroke-dasharray: none; stroke-linecap: round; stroke-dashoffset: 0; stroke-linejoin: round; stroke-miterlimit: 10; fill: none; fill-rule: nonzero; opacity: 1;" vector-effect="non-scaling-stroke"  transform=" translate(-264.61, -165.58)" d="M 264.6093896103901 165.58441558441555 L 264.61138961039006 165.58441558441555" stroke-linecap="round" />
</g>
<g transform="matrix(-0.52 0 0 0.56 250 256.49)" id="kAMvQu_ovAkYP2Jm4ZxN0"  >
<g style="" vector-effect="non-scaling-stroke"   >
		<g transform="matrix(1.33 0 0 1.33 -1.87 -54.63)" id="nAraTJv4Tu5K1PqwAVtp7"  >
<path style="stroke: none; stroke-width: 1; stroke-dasharray: none; stroke-linecap: butt; stroke-dashoffset: 0; stroke-linejoin: miter; stroke-miterlimit: 4; fill: rgb(0,0,0); fill-rule: nonzero; opacity: 1;" vector-effect="non-scaling-stroke"  transform=" translate(-365.59, -295.02)" d="M 255.29 70.29 C 301.75 28.86 364.34 10.9 425.37 7.25 C 483.71 5.11 543.91 17.09 594.06 47.93 C 634.26 71.7 666.44 112.06 671.61 159.51 C 689.07 160.74 703.07 175.33 707.24 191.76 C 715.22 220.56 706.37 252.07 688.28 275.23 C 717.15 323.67 715.07 391.67 676.69 434.65 C 669.75 439.58 665.75 447.05 662.79 454.82 C 682.16 463.33 702.35 469.86 722.19 477.2 C 694.73 483.77 666.09 485.87 638.32 491.1 C 594.74 534.47 533.72 556.23 473.47 562.4 C 417.13 570.58 359.4 566.03 304.13 553.28 C 280.03 561.94 257.25 574.26 233.18 583.04 C 228.91 574.75 225.07 566.14 222.01 557.32 C 235.7 551.2 249.95 546.31 263.15 539.16 C 252.29 533.19 240.96 528.01 230 522.28 C 207.08 531.73 184.67 543.03 161.27 551.09 C 157.64 542.85 154.24 534.5 150.88 526.15 C 168.37 517.84 186.27 510.43 204.02 502.72 C 174.88 477.08 157.12 440.45 151.3 402.59 C 107.37 405.04 57.53 409.95 18.02 385.08 C 8.78 381.1 3.84 364.13 17.19 361.95 C 53.64 351.79 91.91 352.8 129.18 347.65 C 99.06 323.41 62.54 306.53 35.62 278.3 C 28.41 269.78 38.54 260.46 47.36 259.84 C 76.35 256.25 104.66 269.61 130.16 280.73 C 128.42 266.02 135.62 251.66 145.91 240.75 C 134.92 212.11 137.97 175.14 163.03 154.72 C 167.28 161.65 169.07 170.08 174.75 176.09 C 181.79 160.7 195.39 148.87 211.25 143.17 C 217.68 114.97 234.46 89.97 255.29 70.29 M 391.97 42 C 346.56 49.22 300.6 67.19 268.58 101.28 L 267.79 101.04 C 257.38 113.57 248.08 127.32 243.12 142.98 C 309.1 149.41 374.91 157.07 441.1 160.88 C 507.12 165.41 573.61 172.13 639.74 165.48 C 640.51 149.68 634.54 134.41 626.57 121.04 C 606.31 88.06 571.36 67.41 535.94 54.07 C 490.02 37.7 439.96 33.48 391.97 42 M 199.29 207.14 C 203.72 213.45 210.22 218.15 216.14 223.02 C 231.54 236.84 246.19 252.54 263.67 263.45 C 390.56 285.19 522.02 285.51 648.61 261.58 C 667.24 260.9 674.17 241.31 678.01 226.03 C 679.37 214.92 682.26 195.07 668.82 190.04 C 626.13 203.27 581.04 197.07 537.13 197.93 C 433.36 193.29 330.1 182.54 226.83 172.36 C 209.65 172.12 197.6 191.22 199.29 207.14 M 160.01 226.09 C 174.43 265.57 206.96 294.52 239 320 C 204.46 309.94 172.94 288.8 152.81 258.7 C 140.48 268.1 146.2 287.04 155.72 296.31 C 184.82 325.92 224.25 341.58 262.03 356.99 C 227.12 356.17 192.11 345.6 163.08 326.02 C 161.22 347.06 171.42 369.44 190.19 379.85 C 214.82 394.5 244.25 397.69 272.32 398.66 C 238.7 401.9 201.58 402.81 171.92 384.1 C 171.96 397.19 173.69 410.65 177.92 423.06 C 190.37 471.41 233.63 505.5 278.8 522.2 C 326.37 541.08 378.14 546.65 428.99 545.08 C 487.82 542.96 549.27 531.83 598.27 497.21 C 577.87 499.9 557.57 504.77 537 505.31 C 543 485.25 551.49 465.99 558.13 446.13 C 550.01 452.96 540.46 457.45 531.14 462.16 C 503.03 470.92 470.94 464.87 448.44 445.56 C 410.08 412.84 397.08 356.39 411.75 308.94 C 410.16 308.88 406.97 308.77 405.38 308.72 C 368.86 308.06 332.23 305.26 296.09 299.88 C 316.22 324.45 331.87 355.59 329.48 388.11 C 324.55 347 295.2 314 265.16 287.85 C 229.97 254.08 181.42 230.96 159.77 185.44 C 154.88 198.19 156.1 213.23 160.01 226.09 M 445 309.89 C 442.38 309.94 437.15 310.05 434.53 310.11 C 420.33 348.98 428.32 397.02 458.96 426.04 C 475.57 441.75 500.69 448.56 522.66 441.46 L 521.81 441.34 C 546.11 435.59 559.89 413.1 572.78 393.86 C 577.51 400.95 580.77 409.01 586.77 415.21 C 598.54 431.18 622.38 443.19 641.33 432.69 C 654.56 429.56 663.71 417.02 670.98 405.99 C 692.29 370.42 690.55 324.02 670.96 288.07 C 597.14 305.92 520.73 310.55 445 309.89 M 580.28 447.85 C 576.04 458.34 571.74 468.92 568.95 479.89 C 592.77 477.52 616.25 472.39 640.06 469.83 C 620.4 461.87 600.41 454.56 580.28 447.85 Z" stroke-linecap="round" />
</g>
		<g transform="matrix(1.33 0 0 1.33 107.43 -338.05)" id="_HbR7JW_qYsXsDsGhUtqP"  >
<path style="stroke: none; stroke-width: 1; stroke-dasharray: none; stroke-linecap: butt; stroke-dashoffset: 0; stroke-linejoin: miter; stroke-miterlimit: 4; fill: rgb(204,0,0); fill-rule: nonzero; opacity: 1;" vector-effect="non-scaling-stroke"  transform=" translate(-447.58, -82.46)" d="M 391.97 42 C 439.96 33.48 490.02 37.7 535.94 54.07 C 571.36 67.41 606.31 88.06 626.57 121.04 C 589.49 131.34 549.5 125.66 511.38 125.64 C 430.23 120.59 348.89 113.77 268.58 101.28 C 300.6 67.19 346.56 49.22 391.97 42 M 499.97 66.31 C 491.73 67.75 494.71 78.65 499.72 82.31 C 517.1 97.39 539.43 106.12 561.89 110.28 C 568.87 110.63 579.04 113.07 583.93 106.36 C 585.18 97.5 577.41 91.35 570.78 87.17 C 549.99 73.64 525.22 63.28 499.97 66.31 Z" stroke-linecap="round" />
</g>
		<g transform="matrix(1.33 0 0 1.33 229.93 -330.15)" id="yhUhBcAsALysEhinS6bjQ"  >
<path style="stroke: none; stroke-width: 1; stroke-dasharray: none; stroke-linecap: butt; stroke-dashoffset: 0; stroke-linejoin: miter; stroke-miterlimit: 4; fill: rgb(255,255,255); fill-rule: nonzero; opacity: 1;" vector-effect="non-scaling-stroke"  transform=" translate(-539.44, -88.39)" d="M 499.97 66.31 C 525.22 63.28 549.99 73.64 570.78 87.17 C 577.41 91.35 585.18 97.5 583.93 106.36 C 579.04 113.07 568.87 110.63 561.89 110.28 C 539.43 106.12 517.1 97.39 499.72 82.31 C 494.71 78.65 491.73 67.75 499.97 66.31 Z" stroke-linecap="round" />
</g>
		<g transform="matrix(1.33 0 0 1.33 99.28 -268.46)" id="oXlNzefhyX-Yz3ib0aJXW"  >
<path style="stroke: none; stroke-width: 1; stroke-dasharray: none; stroke-linecap: butt; stroke-dashoffset: 0; stroke-linejoin: miter; stroke-miterlimit: 4; fill: rgb(153,0,0); fill-rule: nonzero; opacity: 1;" vector-effect="non-scaling-stroke"  transform=" translate(-441.46, -134.66)" d="M 267.79 101.04 L 268.58 101.28 C 348.89 113.77 430.23 120.59 511.38 125.64 C 549.5 125.66 589.49 131.34 626.57 121.04 C 634.54 134.41 640.51 149.68 639.74 165.48 C 573.61 172.13 507.12 165.41 441.1 160.88 C 374.91 157.07 309.1 149.41 243.12 142.98 C 248.08 127.32 257.38 113.57 267.79 101.04 Z" stroke-linecap="round" />
</g>
		<g transform="matrix(1.33 0 0 1.33 96.25 -170.3)" id="UUqVGOQIWKtpZbr8KhQT7"  >
<path style="stroke: none; stroke-width: 1; stroke-dasharray: none; stroke-linecap: butt; stroke-dashoffset: 0; stroke-linejoin: miter; stroke-miterlimit: 4; fill: rgb(102,102,102); fill-rule: nonzero; opacity: 1;" vector-effect="non-scaling-stroke"  transform=" translate(-439.19, -208.27)" d="M 199.29 207.14 C 197.6 191.22 209.65 172.12 226.83 172.36 C 330.1 182.54 433.36 193.29 537.13 197.93 C 581.04 197.07 626.13 203.27 668.82 190.04 C 682.26 195.07 679.37 214.92 678.01 226.03 C 568.78 245.94 456.86 247.15 346.31 240.71 C 302.63 237.53 258.81 233.28 216.14 223.02 C 210.22 218.15 203.72 213.45 199.29 207.14 Z" stroke-linecap="round" />
</g>
		<g transform="matrix(1.33 0 0 1.33 -20.07 18.93)" id="k2wXL3dnkm2D3dvJzgjTy"  >
<path style="stroke: none; stroke-width: 1; stroke-dasharray: none; stroke-linecap: butt; stroke-dashoffset: 0; stroke-linejoin: miter; stroke-miterlimit: 4; fill: rgb(153,204,0); fill-rule: nonzero; opacity: 1;" vector-effect="non-scaling-stroke"  transform=" translate(-351.95, -350.2)" d="M 160.01 226.09 C 156.1 213.23 154.88 198.19 159.77 185.44 C 181.42 230.96 229.97 254.08 265.16 287.85 C 295.2 314 324.55 347 329.48 388.11 C 331.87 355.59 316.22 324.45 296.09 299.88 C 332.23 305.26 368.86 308.06 405.38 308.72 C 398.64 342.89 395.4 379.26 408.42 412.58 C 417.67 437.8 433.95 462.45 459.14 473.81 C 482.57 485.32 512.3 479.95 531.14 462.16 C 540.46 457.45 550.01 452.96 558.13 446.13 C 551.49 465.99 543 485.25 537 505.31 C 520.16 510.07 503.02 514.96 485.37 514.95 C 457.74 508.64 435.57 487.37 407.42 483 C 390.19 480.27 377.48 496.46 360.37 494.61 C 341.58 492.3 327.15 477 308.2 475.14 C 300.52 476.41 293.66 482.16 285.59 480.82 C 272.02 476.32 266.25 461.36 254.36 454.39 C 242.38 449.65 228.56 460.62 217.22 452.85 C 202.89 444.67 190.05 434.18 177.92 423.06 C 173.69 410.65 171.96 397.19 171.92 384.1 C 201.58 402.81 238.7 401.9 272.32 398.66 C 244.25 397.69 214.82 394.5 190.19 379.85 C 171.42 369.44 161.22 347.06 163.08 326.02 C 192.11 345.6 227.12 356.17 262.03 356.99 C 224.25 341.58 184.82 325.92 155.72 296.31 C 146.2 287.04 140.48 268.1 152.81 258.7 C 172.94 288.8 204.46 309.94 239 320 C 206.96 294.52 174.43 265.57 160.01 226.09 M 373.42 430.2 C 366.42 431.63 365.82 442.74 372.96 444.33 C 386.13 447.09 402.46 440.9 409.11 429.19 C 397.27 429.17 385.07 427.75 373.42 430.2 M 380.93 468.2 C 381.13 475.97 392.38 474.48 397.82 475.08 C 413.79 475.87 418.89 456.83 417.72 444.15 C 404.37 449.95 389.81 456.18 380.93 468.2 Z" stroke-linecap="round" />
</g>
		<g transform="matrix(1.33 0 0 1.33 106.77 -112.89)" id="KVxyk3LSJq6ghELx80nor"  >
<path style="stroke: none; stroke-width: 1; stroke-dasharray: none; stroke-linecap: butt; stroke-dashoffset: 0; stroke-linejoin: miter; stroke-miterlimit: 4; fill: rgb(64,64,65); fill-rule: nonzero; opacity: 1;" vector-effect="non-scaling-stroke"  transform=" translate(-447.07, -251.33)" d="M 216.14 223.02 C 258.81 233.28 302.63 237.53 346.31 240.71 C 456.86 247.15 568.78 245.94 678.01 226.03 C 674.17 241.31 667.24 260.9 648.61 261.58 C 522.02 285.51 390.56 285.19 263.67 263.45 C 246.19 252.54 231.54 236.84 216.14 223.02 Z" stroke-linecap="round" />
</g>
		<g transform="matrix(1.33 0 0 1.33 263.1 38.27)" id="aZ15tfySNUnM2z83_Q-1O"  >
<path style="stroke: none; stroke-width: 1; stroke-dasharray: none; stroke-linecap: butt; stroke-dashoffset: 0; stroke-linejoin: miter; stroke-miterlimit: 4; fill: rgb(255,255,255); fill-rule: nonzero; opacity: 1;" vector-effect="non-scaling-stroke"  transform=" translate(-564.32, -364.7)" d="M 445 309.89 C 520.73 310.55 597.14 305.92 670.96 288.07 C 690.55 324.02 692.29 370.42 670.98 405.99 C 663.71 417.02 654.56 429.56 641.33 432.69 C 622.96 428.81 608.27 415.91 597.9 400.78 C 594.09 405.51 590.39 410.33 586.77 415.21 C 580.77 409.01 577.51 400.95 572.78 393.86 C 559.89 413.1 546.11 435.59 521.81 441.34 C 462.26 433.44 432.94 363.56 445 309.89 M 535.47 322.25 C 519.52 337.68 518.4 369.76 536.92 383.47 C 553.69 387.97 560.15 364.99 558.81 352.44 C 554.15 351.64 549.5 350.85 544.88 349.9 C 548.33 345.12 553.72 341.44 555.89 335.82 C 554.7 327.19 544.81 314.9 535.47 322.25 M 641.88 351.87 C 642.31 361.78 643.73 380.3 657.35 379.65 C 667.62 373.3 673.47 347.83 657.14 348.39 C 666.1 341.88 667.37 329.39 657.47 323 C 643.86 322.85 641.38 341.54 641.88 351.87 Z" stroke-linecap="round" />
</g>
		<g transform="matrix(1.33 0 0 1.33 131.09 77.74)" id="GHi0RiNdCuMmL1k5h0mWZ"  >
<path style="stroke: none; stroke-width: 1; stroke-dasharray: none; stroke-linecap: butt; stroke-dashoffset: 0; stroke-linejoin: miter; stroke-miterlimit: 4; fill: rgb(102,153,0); fill-rule: nonzero; opacity: 1;" vector-effect="non-scaling-stroke"  transform=" translate(-465.31, -394.3)" d="M 405.38 308.72 C 406.97 308.77 410.16 308.88 411.75 308.94 C 397.08 356.39 410.08 412.84 448.44 445.56 C 470.94 464.87 503.03 470.92 531.14 462.16 C 512.3 479.95 482.57 485.32 459.14 473.81 C 433.95 462.45 417.67 437.8 408.42 412.58 C 395.4 379.26 398.64 342.89 405.38 308.72 Z" stroke-linecap="round" />
</g>
		<g transform="matrix(1.33 0 0 1.33 144.26 54.77)" id="b5xoN01MITFJIW7hdSCgz"  >
<path style="stroke: none; stroke-width: 1; stroke-dasharray: none; stroke-linecap: butt; stroke-dashoffset: 0; stroke-linejoin: miter; stroke-miterlimit: 4; fill: rgb(208,210,211); fill-rule: nonzero; opacity: 1;" vector-effect="non-scaling-stroke"  transform=" translate(-475.19, -377.08)" d="M 434.53 310.11 C 437.15 310.05 442.38 309.94 445 309.89 C 432.94 363.56 462.26 433.44 521.81 441.34 L 522.66 441.46 C 500.69 448.56 475.57 441.75 458.96 426.04 C 428.32 397.02 420.33 348.98 434.53 310.11 Z" stroke-linecap="round" />
</g>
		<g transform="matrix(1.33 0 0 1.33 232.17 21.36)" id="IzxYw5eDcafNppX-uavVl"  >
<path style="stroke: none; stroke-width: 1; stroke-dasharray: none; stroke-linecap: butt; stroke-dashoffset: 0; stroke-linejoin: miter; stroke-miterlimit: 4; fill: rgb(0,0,0); fill-rule: nonzero; opacity: 1;" vector-effect="non-scaling-stroke"  transform=" translate(-541.12, -352.02)" d="M 535.47 322.25 C 544.81 314.9 554.7 327.19 555.89 335.82 C 553.72 341.44 548.33 345.12 544.88 349.9 C 549.5 350.85 554.15 351.64 558.81 352.44 C 560.15 364.99 553.69 387.97 536.92 383.47 C 518.4 369.76 519.52 337.68 535.47 322.25 Z" stroke-linecap="round" />
</g>
		<g transform="matrix(1.33 0 0 1.33 383.43 20.44)" id="ISgEEupKqUgSKjO_lkge7"  >
<path style="stroke: none; stroke-width: 1; stroke-dasharray: none; stroke-linecap: butt; stroke-dashoffset: 0; stroke-linejoin: miter; stroke-miterlimit: 4; fill: rgb(0,0,0); fill-rule: nonzero; opacity: 1;" vector-effect="non-scaling-stroke"  transform=" translate(-654.58, -351.33)" d="M 641.88 351.87 C 641.38 341.54 643.86 322.85 657.47 323 C 667.37 329.39 666.1 341.88 657.14 348.39 C 673.47 347.83 667.62 373.3 657.35 379.65 C 643.73 380.3 642.31 361.78 641.88 351.87 Z" stroke-linecap="round" />
</g>
		<g transform="matrix(1.33 0 0 1.33 329.4 110.28)" id="NTRhwGWkO5odQwibCjFlp"  >
<path style="stroke: none; stroke-width: 1; stroke-dasharray: none; stroke-linecap: butt; stroke-dashoffset: 0; stroke-linejoin: miter; stroke-miterlimit: 4; fill: rgb(208,210,211); fill-rule: nonzero; opacity: 1;" vector-effect="non-scaling-stroke"  transform=" translate(-614.05, -418.71)" d="M 586.77 415.21 C 590.39 410.33 594.09 405.51 597.9 400.78 C 608.27 415.91 622.96 428.81 641.33 432.69 C 622.38 443.19 598.54 431.18 586.77 415.21 Z" stroke-linecap="round" />
</g>
		<g transform="matrix(1.33 0 0 1.33 28.13 197.59)" id="y-LxEd_D5jsjWvxL-4lwm"  >
<path style="stroke: none; stroke-width: 1; stroke-dasharray: none; stroke-linecap: butt; stroke-dashoffset: 0; stroke-linejoin: miter; stroke-miterlimit: 4; fill: rgb(102,153,0); fill-rule: nonzero; opacity: 1;" vector-effect="non-scaling-stroke"  transform=" translate(-388.1, -484.2)" d="M 177.92 423.06 C 190.05 434.18 202.89 444.67 217.22 452.85 C 228.56 460.62 242.38 449.65 254.36 454.39 C 266.25 461.36 272.02 476.32 285.59 480.82 C 293.66 482.16 300.52 476.41 308.2 475.14 C 327.15 477 341.58 492.3 360.37 494.61 C 377.48 496.46 390.19 480.27 407.42 483 C 435.57 487.37 457.74 508.64 485.37 514.95 C 503.02 514.96 520.16 510.07 537 505.31 C 557.57 504.77 577.87 499.9 598.27 497.21 C 549.27 531.83 487.82 542.96 428.99 545.08 C 378.14 546.65 326.37 541.08 278.8 522.2 C 233.63 505.5 190.37 471.41 177.92 423.06 Z" stroke-linecap="round" />
</g>
		<g transform="matrix(1.33 0 0 1.33 28.66 134.5)" id="YDXTcxOhL6i19uLS5l5Xj"  >
<path style="stroke: none; stroke-width: 1; stroke-dasharray: none; stroke-linecap: butt; stroke-dashoffset: 0; stroke-linejoin: miter; stroke-miterlimit: 4; fill: rgb(0,0,0); fill-rule: nonzero; opacity: 1;" vector-effect="non-scaling-stroke"  transform=" translate(-388.5, -436.87)" d="M 373.42 430.2 C 385.07 427.75 397.27 429.17 409.11 429.19 C 402.46 440.9 386.13 447.09 372.96 444.33 C 365.82 442.74 366.42 431.63 373.42 430.2 Z" stroke-linecap="round" />
</g>
		<g transform="matrix(1.33 0 0 1.33 43.21 164.84)" id="-Wvb7RYaCveBFIzLiciux"  >
<path style="stroke: none; stroke-width: 1; stroke-dasharray: none; stroke-linecap: butt; stroke-dashoffset: 0; stroke-linejoin: miter; stroke-miterlimit: 4; fill: rgb(0,0,0); fill-rule: nonzero; opacity: 1;" vector-effect="non-scaling-stroke"  transform=" translate(-399.41, -459.63)" d="M 380.93 468.2 C 389.81 456.18 404.37 449.95 417.72 444.15 C 418.89 456.83 413.79 475.87 397.82 475.08 C 392.38 474.48 381.13 475.97 380.93 468.2 Z" stroke-linecap="round" />
</g>
		<g transform="matrix(1.33 0 0 1.33 316.67 170.49)" id="XvaOEJRLzQPlWK5t_xe6L"  >
<path style="stroke: none; stroke-width: 1; stroke-dasharray: none; stroke-linecap: butt; stroke-dashoffset: 0; stroke-linejoin: miter; stroke-miterlimit: 4; fill: rgb(240,90,40); fill-rule: nonzero; opacity: 1;" vector-effect="non-scaling-stroke"  transform=" translate(-604.5, -463.87)" d="M 580.28 447.85 C 600.41 454.56 620.4 461.87 640.06 469.83 C 616.25 472.39 592.77 477.52 568.95 479.89 C 571.74 468.92 576.04 458.34 580.28 447.85 Z" stroke-linecap="round" />
</g>
</g>
</g>
</svg>