<?xml version="1.0" encoding="UTF-8" standalone="no" ?>
<!DOCTYPE svg PUBLIC "-//W3C//DTD SVG 1.1//EN" "http://www.w3.org/Graphics/SVG/1.1/DTD/svg11.dtd">
<svg xmlns="http://www.w3.org/2000/svg" xmlns:xlink="http://www.w3.org/1999/xlink" version="1.1" width="500" height="500" viewBox="0 0 500 500" xml:space="preserve">
<desc>Created with Fabric.js 4.6.0</desc>
<defs>
</defs>
<g transform="matrix(1 0 0 1 264.61 133.93)" id="fTyhAKfIBIVXKvieKXcmm"  >
<path style="stroke: rgb(169,69,69); stroke-opacity: 0.52; stroke-width: 1; stroke-dasharray: none; stroke-linecap: round; stroke-dashoffset: 0; stroke-linejoin: round; stroke-miterlimit: 10; fill: none; fill-rule: nonzero; opacity: 1;" vector-effect="non-scaling-stroke"  transform=" translate(-264.61, -133.93)" d="M 264.6093896103897 133.92857142857142 L 264.61138961038966 133.92857142857142" stroke-linecap="round" />
</g>
<g transform="matrix(1 0 0 1 212.66 208.6)" id="PKZHyvSERkV1TXf0_oN3j"  >
<path style="stroke: rgb(169,69,69); stroke-opacity: 0.52; stroke-width: 1; stroke-dasharray: none; stroke-linecap: round; stroke-dashoffset: 0; stroke-linejoin: round; stroke-miterlimit: 10; fill: none; fill-rule: nonzero; opacity: 1;" vector-effect="non-scaling-stroke"  transform=" translate(-212.66, -208.6)" d="M 212.66133766233767 208.60389610389606 L 212.66333766233768 208.60389610389606" stroke-linecap="round" />
</g>
<g transform="matrix(1 0 0 1 207.39 211.04)" id="ww3oaNXxkvkd5NPURdsWv"  >
<path style="stroke: rgb(169,69,69); stroke-opacity: 0.52; stroke-width: 1; stroke-dasharray: none; stroke-linecap: round; stroke-dashoffset: 0; stroke-linejoin: round; stroke-miterlimit: 10; fill: none; fill-rule: nonzero; opacity: 1;" vector-effect="non-scaling-stroke"  transform=" translate(-207.39, -211.04)" d="M 207.79120779220787 211.03896103896102 Q 207.79220779220788 211.03896103896102 207.38636363636374 211.03896103896102 L 206.9815194805196 211.03896103896102" stroke-linecap="round" />
</g>
<g transform="matrix(1 0 0 1 120.13 154.22)" id="1HB-a09ye3cgK8DH4iREz"  >
<path style="stroke: rgb(169,69,69); stroke-opacity: 0.52; stroke-width: 1; stroke-dasharray: none; stroke-linecap: round; stroke-dashoffset: 0; stroke-linejoin: round; stroke-miterlimit: 10; fill: none; fill-rule: nonzero; opacity: 1;" vector-effect="non-scaling-stroke"  transform=" translate(-120.13, -154.22)" d="M 120.12887012987036 154.2207792207792 L 120.13087012987037 154.2207792207792" stroke-linecap="round" />
</g>
<g transform="matrix(1 0 0 1 245.94 146.92)" id="VItdU5gxhNIrrY7winB7b"  >
<path style="stroke: rgb(169,69,69); stroke-opacity: 0.52; stroke-width: 1; stroke-dasharray: none; stroke-linecap: round; stroke-dashoffset: 0; stroke-linejoin: round; stroke-miterlimit: 10; fill: none; fill-rule: nonzero; opacity: 1;" vector-effect="non-scaling-stroke"  transform=" translate(-245.94, -146.92)" d="M 245.94055844155864 146.9155844155844 L 245.94255844155865 146.9155844155844" stroke-linecap="round" />
</g>
<g transform="matrix(1 0 0 1 77.92 159.9)" id="J1-TtaGIT3S_j_aNB7wAK"  >
<path style="stroke: rgb(169,69,69); stroke-opacity: 0.52; stroke-width: 1; stroke-dasharray: none; stroke-linecap: round; stroke-dashoffset: 0; stroke-linejoin: round; stroke-miterlimit: 10; fill: none; fill-rule: nonzero; opacity: 1;" vector-effect="non-scaling-stroke"  transform=" translate(-77.92, -159.9)" d="M 77.92107792207824 159.90259740259737 L 77.92307792207825 159.90259740259737" stroke-linecap="round" />
</g>
<g transform="matrix(1 0 0 1 215.91 166.4)" id="X16D82lK_XeUxSNN2-eib"  >
<path style="stroke: rgb(169,69,69); stroke-opacity: 0.52; stroke-width: 1; stroke-dasharray: none; stroke-linecap: round; stroke-dashoffset: 0; stroke-linejoin: round; stroke-miterlimit: 10; fill: none; fill-rule: nonzero; opacity: 1;" vector-effect="non-scaling-stroke"  transform=" translate(-215.91, -166.4)" d="M 215.90809090909133 166.39610389610388 L 215.91009090909134 166.39610389610388" stroke-linecap="round" />
</g>
<g transform="matrix(1 0 0 1 288.96 100.65)" id="eCtMrvrBHjYd3O9rVEH-I"  >
<path style="stroke: rgb(169,69,69); stroke-opacity: 0.52; stroke-width: 1; stroke-dasharray: none; stroke-linecap: round; stroke-dashoffset: 0; stroke-linejoin: round; stroke-miterlimit: 10; fill: none; fill-rule: nonzero; opacity: 1;" vector-effect="non-scaling-stroke"  transform=" translate(-288.96, -100.65)" d="M 288.9600389610394 100.64935064935065 L 288.96203896103935 100.64935064935065" stroke-linecap="round" />
</g>
<g transform="matrix(1 0 0 1 264.61 165.58)" id="3jQWKvuvemW5BzNE3dofp"  >
<path style="stroke: rgb(169,69,69); stroke-opacity: 0.52; stroke-width: 1; stroke-dasharray: none; stroke-linecap: round; stroke-dashoffset: 0; stroke-linejoin: round; stroke-miterlimit: 10; fill: none; fill-rule: nonzero; opacity: 1;" vector-effect="non-scaling-stroke"  transform=" translate(-264.61, -165.58)" d="M 264.6093896103901 165.58441558441555 L 264.61138961039006 165.58441558441555" stroke-linecap="round" />
</g>
<g transform="matrix(1.65 0 0 -3.27 250.2 389.11)" id="MOJZDGbnuCSmwvhfEfCVM"  >
<linearGradient id="SVGID_1134" gradientUnits="userSpaceOnUse" gradientTransform="matrix(-0.08 1.6 1.6 0.08 0.03 67.31)"  x1="-32.247" y1="91.028" x2="-3.2078" y2="91.028">
<stop offset="0%" style="stop-color:rgb(82,196,130);stop-opacity: 1"/>
<stop offset="100%" style="stop-color:rgb(172,186,68);stop-opacity: 1"/>
</linearGradient>
<path style="stroke: none; stroke-width: 1; stroke-dasharray: none; stroke-linecap: butt; stroke-dashoffset: 0; stroke-linejoin: miter; stroke-miterlimit: 4; fill: url(#SVGID_1134); fill-rule: evenodd; opacity: 1;" vector-effect="non-scaling-stroke"  transform=" translate(-148.22, -33.64)" d="M 282.99 10.834 C 268 7.26 245.5 4.35 215.47000000000003 2.110999999999999 C 170.35000000000002 -1.4080000000000013 128.06000000000003 -0.5290000000000012 88.59000000000003 4.751999999999999 C 70.24600000000004 7.204999999999998 54.141000000000034 10.165999999999999 40.27300000000003 13.634999999999998 C 29.55500000000003 16.352999999999998 17.76600000000003 20.006 4.910000000000032 24.592 C -1.3279999999999683 26.834 -1.6209999999999676 29.497999999999998 4.031000000000033 32.592 C 8.141000000000034 34.885 14.434000000000033 37.016999999999996 22.910000000000032 38.989999999999995 C 27.125000000000032 39.95099999999999 36.56600000000003 41.364999999999995 51.23000000000003 43.23199999999999 C 66.64500000000004 45.684999999999995 80.51200000000003 49.364999999999995 92.83200000000002 54.270999999999994 C 110.48400000000002 61.31399999999999 124.56600000000003 65.475 135.07000000000002 66.752 C 149.258 68.404 163.12500000000003 66.166 176.67200000000003 60.032999999999994 C 197.79300000000003 50.48599999999999 213.15200000000002 43.84599999999999 222.75400000000002 40.114999999999995 C 240.246 33.28699999999999 254.72700000000003 29.048999999999992 266.19100000000003 27.391999999999996 C 277.34000000000003 25.794999999999995 285.711 23.341999999999995 291.312 20.032999999999994 C 294.137 18.380999999999993 295.844 16.888999999999996 296.43 15.552999999999994 C 294.938 14.220999999999993 290.457 12.645999999999994 282.992 10.833999999999993 z" stroke-linecap="round" />
</g>
</svg>